<?xml version="1.0" standalone="no"?>
<!DOCTYPE svg PUBLIC "-//W3C//DTD SVG 20010904//EN"
 "http://www.w3.org/TR/2001/REC-SVG-20010904/DTD/svg10.dtd">
<svg version="1.0" xmlns="http://www.w3.org/2000/svg"
 width="978.000000pt" height="978.000000pt" viewBox="0 0 978.000000 978.000000"
 preserveAspectRatio="xMidYMid meet">
<metadata>
Created by potrace 1.14, written by Peter Selinger 2001-2017
</metadata>
<g transform="translate(0.000000,978.000000) scale(0.100000,-0.100000)"
fill="#000000" stroke="none">
<path d="M4849 7629 c-9 -13 -35 -82 -59 -154 -79 -240 -110 -329 -119 -338
-4 -4 -138 -8 -297 -8 -275 1 -288 0 -268 -17 58 -47 132 -101 274 -199 170
-119 184 -136 157 -194 -9 -19 -39 -99 -66 -179 -27 -80 -59 -169 -71 -199
-14 -35 -18 -57 -11 -64 9 -9 79 34 241 148 130 92 213 145 226 145 16 0 41
-16 204 -129 243 -170 250 -175 261 -164 9 9 -1 42 -119 373 -24 66 -36 115
-32 130 4 17 54 57 181 145 215 146 257 177 262 190 3 7 -92 10 -273 10 -219
0 -281 3 -294 14 -9 8 -23 39 -32 70 -8 31 -31 103 -49 161 -19 58 -39 130
-46 160 -6 30 -16 60 -21 67 -5 7 -7 17 -3 23 3 5 0 10 -9 10 -8 0 -16 5 -18
11 -2 7 -11 1 -19 -12z"/>
<path d="M6926 7178 c-13 -30 -27 -66 -31 -78 0 -3 -12 -39 -24 -80 -68 -218
-104 -320 -113 -326 -6 -4 -92 -6 -192 -5 -219 2 -236 3 -236 13 0 4 -5 8 -11
8 -5 0 -7 -5 -3 -12 5 -8 3 -8 -7 -2 -20 13 -79 12 -79 -1 0 -5 -5 -3 -10 5
-6 10 -10 11 -10 3 0 -7 -8 -13 -17 -13 -24 0 36 -52 153 -132 190 -130 273
-193 283 -214 7 -17 -7 -70 -70 -258 -43 -129 -79 -240 -79 -246 0 -21 28 -9
106 45 297 208 363 249 386 238 13 -6 70 -45 128 -88 223 -163 330 -227 330
-196 0 5 -14 46 -31 92 -110 296 -131 358 -133 388 -1 31 4 38 54 72 30 21 60
42 65 46 6 5 55 38 110 75 150 99 238 165 228 171 -5 3 -58 4 -119 2 -256 -9
-445 -7 -459 5 -15 13 -33 63 -64 180 -11 41 -32 109 -46 150 -15 41 -29 86
-31 100 -7 32 -36 82 -51 87 -7 3 -19 -10 -27 -29z"/>
<path d="M2967 7182 c-15 -16 -21 -34 -31 -92 -3 -14 -7 -34 -10 -45 -2 -11
-9 -42 -15 -69 -7 -26 -27 -97 -47 -157 -47 -146 -41 -143 -235 -134 -83 3
-160 9 -172 11 -12 3 -40 7 -62 10 -21 2 -42 8 -45 12 -3 4 -18 8 -34 9 -16 1
-26 -1 -22 -4 4 -4 -8 -14 -25 -23 l-32 -17 54 -42 c30 -23 120 -88 200 -144
181 -128 192 -138 191 -176 0 -16 -35 -128 -76 -249 -42 -121 -76 -225 -76
-231 0 -22 30 -10 107 42 43 30 130 89 193 131 63 43 123 85 132 93 35 31 64
17 240 -107 270 -192 252 -181 261 -156 5 13 -17 83 -112 354 -21 62 -37 121
-34 131 7 27 23 42 148 131 201 143 293 215 289 222 -3 5 -13 4 -22 0 -28 -14
-519 -7 -536 7 -11 9 -121 321 -131 371 -1 3 -8 21 -17 41 -9 20 -19 45 -22
57 -11 33 -40 45 -59 24z"/>
<path d="M6236 6721 c9 -9 34 -9 34 -1 0 5 -9 8 -20 7 -10 -1 -17 -3 -14 -6z"/>
<path d="M967 6515 c-11 -22 -13 -35 -6 -35 8 0 7 -5 -1 -15 -7 -8 -9 -15 -5
-15 4 0 3 -6 -2 -12 -6 -7 -16 -35 -22 -63 -7 -27 -28 -95 -48 -150 -19 -55
-40 -115 -46 -133 -6 -18 -18 -37 -27 -42 -10 -5 -139 -10 -289 -11 -149 0
-273 -5 -276 -9 -3 -4 48 -43 113 -85 136 -90 301 -211 320 -234 6 -8 12 -25
12 -37 0 -12 -36 -124 -80 -249 -44 -125 -80 -233 -80 -241 0 -27 36 -13 110
42 41 32 120 88 175 125 55 38 119 83 142 100 l42 32 39 -21 c40 -20 169 -111
276 -194 82 -64 153 -101 159 -85 5 15 -60 219 -117 367 -52 133 -50 140 59
223 50 37 122 89 160 114 92 61 197 144 191 151 -9 8 -107 9 -112 0 -3 -5 -10
-5 -16 -2 -6 4 -104 6 -218 5 -236 -2 -224 -6 -256 89 -10 30 -21 60 -25 65
-4 6 -19 51 -34 100 -15 50 -35 117 -45 151 -10 34 -23 71 -29 83 -17 32 -45
26 -64 -14z"/>
<path d="M8884 6533 c3 -6 2 -13 -2 -15 -9 -4 -54 -137 -83 -248 -12 -47 -25
-89 -29 -95 -5 -5 -15 -32 -23 -60 -9 -34 -22 -54 -38 -63 -18 -9 -92 -12
-292 -10 -173 2 -267 -1 -267 -7 0 -17 40 -48 150 -121 171 -113 274 -193 285
-219 9 -21 -1 -60 -62 -242 -79 -234 -91 -283 -67 -283 8 0 23 9 34 20 11 11
23 21 28 21 24 4 42 17 87 60 28 26 71 60 97 76 25 15 79 53 118 83 40 30 78
55 85 56 7 1 28 -10 46 -25 19 -15 86 -64 151 -110 64 -45 127 -92 140 -105
12 -13 45 -35 71 -49 85 -48 81 -28 -82 413 -9 25 -16 51 -15 58 1 6 2 18 3
26 0 8 42 42 91 76 50 33 117 79 149 103 33 23 94 64 136 90 52 34 75 54 73
65 -3 16 -48 27 -48 13 0 -3 -117 -6 -261 -6 -246 0 -261 1 -275 19 -8 11 -14
28 -14 37 0 10 -13 55 -29 101 -40 116 -48 145 -61 213 -7 33 -21 79 -32 102
-16 34 -25 42 -44 41 -15 -2 -23 -7 -20 -15z"/>
<path d="M6940 5126 c-89 -17 -103 -22 -197 -68 -173 -85 -313 -260 -393 -493
-16 -44 -31 -98 -35 -119 -7 -37 -7 -39 16 -33 13 3 76 15 139 27 63 12 156
30 205 40 50 11 113 22 140 26 60 8 76 16 137 66 66 54 131 67 232 43 80 -19
144 -14 286 20 30 7 110 23 178 36 162 30 164 31 124 100 -101 177 -286 311
-485 350 -79 16 -274 18 -347 5z"/>
<path d="M517 5083 c-2 -1 -46 -4 -99 -7 -53 -2 -101 -7 -107 -10 -8 -5 -11
-188 -12 -599 0 -326 -1 -735 -2 -910 0 -248 2 -320 12 -326 7 -5 40 -3 74 4
34 7 140 27 234 45 95 19 178 37 185 41 12 7 14 58 18 337 1 72 5 132 10 132
7 0 103 -209 157 -345 l28 -70 50 1 c28 0 93 10 145 21 52 12 113 25 135 29
22 4 42 8 45 9 3 0 23 4 45 8 64 13 75 17 75 33 0 8 -27 80 -60 161 -33 80
-58 154 -55 164 3 9 24 29 46 44 115 75 196 195 241 352 28 98 30 264 4 363
-48 185 -174 343 -342 428 -124 63 -265 88 -519 91 -104 1 -216 3 -248 4 -32
2 -59 2 -60 0z m498 -471 c112 -44 158 -115 161 -252 2 -52 -2 -100 -11 -124
-18 -51 -67 -100 -124 -125 -55 -23 -201 -44 -215 -31 -10 10 -18 498 -8 539
5 23 7 24 77 18 40 -4 94 -15 120 -25z"/>
<path d="M8427 5084 c-1 -2 -57 -4 -124 -6 -68 -2 -125 -7 -128 -10 -9 -8 -10
-276 -2 -285 4 -4 33 -2 65 4 134 27 850 166 997 194 162 32 187 43 178 79 -6
24 -34 33 -74 25 -28 -6 -775 -8 -867 -2 -23 2 -44 2 -45 1z"/>
<path d="M2158 5072 l-28 -3 -1 -540 c-2 -973 -3 -939 20 -939 10 0 108 18
217 39 110 22 228 45 264 51 36 6 94 17 130 25 36 9 124 27 195 41 84 16 134
30 142 41 14 18 17 340 3 348 -5 3 -105 7 -224 9 -118 2 -220 7 -226 11 -15 9
-14 417 2 433 9 9 82 12 265 12 l253 0 5 23 c3 12 4 119 3 237 l-3 215 -495 0
c-272 0 -507 -1 -522 -3z"/>
<path d="M3635 5064 c-11 -12 -14 -108 -14 -578 -1 -310 2 -571 5 -580 8 -20
35 -20 121 0 37 9 79 18 93 20 129 22 249 46 268 54 l22 10 0 292 c0 161 4
299 9 307 12 19 136 9 194 -17 125 -55 213 -201 241 -397 13 -89 16 -95 46
-95 15 0 58 7 96 15 68 14 265 53 314 61 99 17 105 27 84 130 -90 435 -339
687 -758 770 -114 22 -700 29 -721 8z"/>
<path d="M9320 4609 c-19 -4 -48 -10 -65 -13 -80 -14 -139 -27 -143 -31 -8 -7
263 -6 282 1 9 3 16 17 16 30 0 20 -5 24 -27 23 -16 -1 -44 -5 -63 -10z"/>
<path d="M9010 4550 c-14 -4 -125 -27 -247 -51 -153 -30 -224 -48 -228 -58
-10 -25 -7 -1673 3 -1683 12 -12 487 -6 499 5 4 5 9 365 10 800 0 436 2 833 3
882 2 131 6 120 -40 105z"/>
<path d="M7850 4325 c-38 -12 -97 -23 -310 -61 -14 -3 -49 -10 -79 -17 l-53
-12 -3 -290 c-1 -159 -5 -306 -9 -325 -4 -19 -13 -71 -22 -115 -18 -98 -51
-169 -101 -219 -50 -50 -85 -67 -149 -73 -140 -14 -251 93 -287 277 -24 117
-30 199 -32 420 l-2 205 -24 -1 c-13 0 -37 -3 -54 -7 -16 -3 -43 -8 -60 -12
-16 -3 -50 -9 -75 -14 -25 -5 -88 -17 -140 -27 -52 -9 -115 -22 -140 -28 l-45
-12 1 -184 c1 -206 20 -334 75 -515 130 -422 416 -638 823 -620 188 9 354 81
481 209 151 152 234 343 289 662 22 127 24 161 21 384 -5 299 -14 383 -46 387
-8 1 -34 -4 -59 -12z"/>
<path d="M4945 3765 c-93 -19 -204 -41 -245 -50 -41 -9 -85 -18 -97 -21 -15
-3 -24 -14 -28 -32 -40 -212 -102 -313 -230 -373 -66 -31 -173 -56 -198 -46
-14 5 -16 30 -16 177 1 95 -1 174 -4 176 -5 5 -162 -22 -302 -51 -38 -8 -96
-20 -127 -26 -31 -5 -61 -16 -67 -23 -8 -9 -10 -126 -9 -377 l3 -364 340 1
340 1 117 31 c286 75 472 220 589 457 60 123 93 238 116 399 15 115 14 157 -4
155 -4 -1 -84 -16 -178 -34z"/>
<path d="M2540 3294 c-95 -20 -115 -23 -230 -44 -155 -28 -164 -30 -175 -41
-12 -12 -15 -417 -3 -441 8 -17 43 -18 522 -18 425 0 516 2 525 14 13 16 13
430 0 456 -6 14 -41 16 -256 14 -136 -1 -254 1 -261 4 -7 2 -19 20 -27 38 -8
19 -18 33 -22 33 -4 -1 -37 -7 -73 -15z"/>
<path d="M5515 3236 c-129 -60 -195 -218 -145 -349 26 -70 64 -116 128 -154
42 -25 56 -28 132 -28 72 0 91 4 125 24 65 39 106 82 135 144 49 102 27 218
-58 310 -72 77 -215 101 -317 53z"/>
<path d="M1610 3116 c-3 -2 -72 -16 -155 -31 -82 -15 -159 -29 -170 -31 -51
-11 -118 -24 -122 -24 -6 0 8 -61 18 -80 5 -8 22 -50 40 -93 17 -43 38 -84 46
-92 12 -12 59 -15 268 -15 147 0 256 4 260 9 3 6 -26 88 -64 183 -60 152 -72
173 -93 176 -13 2 -26 1 -28 -2z"/>
<path d="M779 2956 c-2 -3 -70 -16 -149 -30 -80 -14 -158 -28 -175 -31 -82
-15 -141 -29 -152 -37 -12 -9 -10 -78 2 -98 5 -8 88 -10 256 -9 221 2 249 4
250 18 5 53 5 158 1 173 -4 17 -23 24 -33 14z"/>
<path d="M12 2472 c-13 -32 1 -679 15 -693 8 -8 9212 -7 9606 1 86 1 127 6
128 14 1 6 3 130 4 276 1 146 4 295 5 332 2 38 0 71 -4 75 -3 4 -2198 8 -4877
9 -4540 2 -4871 1 -4877 -14z m1408 -153 c15 -27 -3 -49 -41 -49 -35 0 -57 33
-38 56 18 22 66 18 79 -7z m408 12 c8 -4 12 -19 10 -32 -2 -20 -10 -25 -40
-27 -22 -2 -39 1 -39 7 -1 6 -2 17 -3 24 -5 31 40 49 72 28z m1865 -13 c3 -13
5 -93 4 -178 l-2 -155 -40 0 -40 0 -2 165 c-1 101 3 170 9 178 6 6 23 12 38
12 21 0 29 -6 33 -22z m132 -158 c0 -161 -1 -175 -18 -178 -10 -2 -29 -1 -42
2 l-24 6 3 168 c2 92 4 171 5 175 0 5 18 7 39 5 l37 -3 0 -175z m2831 20 c1
-85 0 -164 -3 -175 -4 -19 -11 -21 -101 -20 l-96 0 -23 34 c-41 60 -25 177 28
215 13 9 43 16 66 16 l43 0 0 38 c0 48 6 54 50 50 l35 -3 1 -155z m522 148 c7
-7 12 -32 12 -56 0 -38 2 -43 18 -37 35 15 52 17 77 11 26 -7 54 -50 53 -82 0
-10 1 -51 2 -90 1 -40 0 -76 -4 -82 -3 -6 -21 -10 -38 -9 -39 2 -46 20 -47
120 l-1 68 -27 -3 c-28 -3 -28 -3 -31 -90 -1 -49 -6 -88 -10 -89 -4 0 -16 -2
-27 -4 -52 -11 -55 -4 -55 140 l0 133 -42 -5 c-72 -8 -68 -1 -68 -138 0 -93
-3 -125 -12 -126 -7 0 -25 -3 -40 -5 -15 -3 -30 1 -35 8 -4 7 -8 67 -8 133 l0
120 -45 5 c-47 5 -57 21 -37 63 7 16 21 17 153 13 80 -2 146 0 150 5 8 13 48
11 62 -3z m-6605 -10 c14 -11 107 -277 111 -318 1 -14 -10 -16 -76 -11 -10 1
-19 13 -23 31 -6 28 -9 30 -56 30 -40 0 -49 -3 -49 -17 0 -31 -16 -45 -54 -48
-24 -3 -39 1 -42 9 -7 18 94 324 108 328 27 9 65 7 81 -4z m2229 -6 c5 -5 8
-20 6 -33 -3 -22 -8 -24 -65 -27 -42 -2 -63 -7 -67 -17 -7 -19 9 -27 58 -30
23 -2 47 -3 54 -4 9 -1 12 -12 10 -33 -3 -33 -4 -33 -59 -36 -55 -3 -57 -4
-61 -33 -6 -37 1 -42 70 -43 55 -1 56 -2 63 -33 8 -40 3 -42 -111 -42 -131 0
-120 -15 -120 174 0 119 3 164 12 167 24 8 200 0 210 -10z m2471 -10 c24 -25
30 -68 14 -101 -13 -25 -12 -30 10 -55 39 -46 26 -118 -29 -147 -32 -17 -199
-24 -208 -9 -5 8 -9 84 -10 171 0 120 2 158 12 162 7 3 54 3 103 1 69 -4 94
-9 108 -22z m2673 20 c6 -4 28 -59 48 -122 21 -63 40 -122 43 -130 4 -8 7 -18
7 -22 1 -3 4 -10 9 -14 16 -16 6 -44 -17 -50 -40 -10 -60 -1 -75 34 -13 29
-19 32 -56 32 -37 0 -43 -3 -56 -32 -12 -29 -18 -33 -54 -33 -54 0 -54 -3 14
199 22 65 45 124 52 132 12 15 66 19 85 6z m-7154 -19 c0 -10 2 -23 2 -30 2
-18 10 -23 54 -29 34 -5 42 -3 43 10 1 9 3 21 4 26 1 6 3 14 4 19 2 14 43 21
63 10 10 -5 18 -21 18 -34 0 -20 6 -24 33 -27 28 -3 32 -6 32 -33 0 -19 -5
-30 -15 -31 -8 -1 -23 -2 -32 -3 -15 -1 -18 -11 -18 -61 0 -65 12 -81 56 -72
18 3 24 11 24 32 0 36 29 61 86 71 26 5 50 12 53 15 11 10 -22 21 -52 17 -76
-10 -88 -4 -66 35 13 25 20 27 85 30 63 3 73 0 97 -22 17 -15 27 -36 27 -53 1
-15 3 -60 5 -100 2 -47 -1 -75 -8 -81 -13 -10 -62 -10 -73 0 -3 4 -17 3 -31
-3 -13 -5 -37 -9 -52 -9 -28 0 -70 31 -72 53 -1 7 -4 -1 -8 -18 -6 -27 -10
-30 -52 -33 -38 -2 -52 2 -75 21 -25 22 -29 32 -32 98 -3 41 -9 77 -14 80 -5
3 -25 3 -45 0 -36 -6 -37 -7 -38 -51 0 -59 9 -78 42 -82 37 -4 46 -52 13 -63
-31 -10 -106 3 -121 21 -7 8 -14 50 -17 92 -2 42 -9 80 -15 84 -17 10 -18 45
-2 58 8 7 15 23 15 37 0 37 78 62 82 26z m623 -64 c9 -14 10 -233 1 -248 -10
-16 -66 -10 -75 9 -9 19 -6 209 4 233 8 19 60 24 70 6z m142 -4 c12 -3 24 -1
28 5 10 17 71 11 96 -9 22 -17 23 -26 24 -132 0 -123 -3 -129 -59 -115 -21 5
-23 11 -24 86 -1 45 -4 86 -7 91 -4 5 -17 9 -31 9 -27 0 -28 -2 -25 -107 2
-69 1 -73 -23 -79 -13 -3 -33 -3 -44 0 -17 6 -19 18 -21 125 -2 106 0 121 16
130 17 10 23 10 70 -4z m277 -8 c3 -12 6 -70 6 -129 l0 -108 -27 -6 c-50 -13
-58 2 -59 122 -1 60 0 116 2 124 2 9 17 16 38 17 27 1 35 -3 40 -20z m171 13
c33 18 75 8 98 -22 16 -22 20 -43 21 -130 l1 -103 -40 0 -40 0 -3 70 c-3 100
-8 115 -37 115 -30 0 -37 -21 -33 -106 3 -75 -8 -92 -55 -80 l-27 6 0 125 0
124 28 3 c15 2 35 0 46 -5 12 -6 27 -5 41 3z m383 -3 c9 -7 12 -45 11 -141 -1
-111 -4 -135 -20 -158 -25 -34 -78 -52 -141 -46 -53 6 -66 15 -63 51 2 20 7
22 46 19 58 -3 89 5 89 23 0 11 -7 14 -25 9 -39 -10 -88 4 -108 31 -18 26 -28
95 -20 140 3 14 19 39 35 56 28 27 34 29 106 27 42 0 83 -6 90 -11z m549 -23
l22 -28 29 32 c24 26 34 30 63 25 19 -2 35 -6 37 -8 1 -1 -13 -26 -33 -55 -19
-28 -35 -59 -35 -67 0 -8 16 -35 35 -60 46 -60 45 -73 -5 -73 -39 0 -71 20
-83 51 -3 10 -13 5 -35 -18 -24 -25 -39 -33 -66 -33 -46 0 -46 15 -1 74 19 26
35 52 35 60 0 7 -16 34 -36 60 -41 54 -36 74 18 70 22 -2 40 -11 55 -30z m370
21 c16 -11 20 -22 17 -42 -7 -36 -10 -38 -39 -25 -58 27 -95 4 -95 -58 0 -31
5 -43 24 -55 22 -15 28 -15 61 -1 20 9 41 13 46 10 17 -10 9 -53 -13 -68 -28
-20 -110 -21 -147 -1 -81 41 -79 197 3 238 40 20 116 21 143 2z m228 -1 c26
-17 45 -61 45 -105 0 -34 -23 -43 -99 -37 -68 6 -80 -23 -18 -45 10 -4 35 -1
57 7 42 14 60 7 60 -25 0 -34 -28 -49 -92 -49 -80 0 -122 21 -142 71 -29 71
-14 136 41 179 32 25 113 27 148 4z m531 -2 c12 -9 27 -27 33 -39 14 -28 14
-90 -1 -99 -6 -4 -42 -6 -80 -5 -66 2 -82 -6 -55 -26 23 -18 60 -22 91 -9 41
17 56 10 56 -24 0 -38 -23 -50 -99 -50 -93 0 -139 34 -148 108 -11 95 46 162
137 162 28 0 53 -7 66 -18z m169 7 c6 0 22 3 37 7 81 19 110 -25 106 -164 l-3
-97 -40 0 -40 0 -5 90 c-5 89 -5 90 -32 93 l-28 3 0 -90 c0 -88 -1 -91 -24
-97 -58 -14 -61 -9 -64 124 -3 119 -2 123 20 132 13 5 32 7 43 4 11 -3 25 -5
30 -5z m376 1 c19 -11 27 -64 11 -74 -4 -2 -26 1 -49 7 -55 14 -73 0 -73 -59
0 -36 5 -47 26 -61 25 -16 28 -16 56 0 22 13 34 14 43 7 16 -13 8 -50 -13 -67
-25 -20 -112 -16 -149 7 -42 25 -54 50 -55 110 0 55 21 99 61 123 29 19 112
22 142 7z m231 -1 c23 -12 48 -67 48 -104 0 -27 -23 -59 -34 -48 -7 7 -118 4
-125 -3 -3 -2 2 -12 11 -20 18 -18 76 -21 104 -6 11 5 25 7 32 5 14 -5 16 -42
3 -62 -13 -20 -131 -27 -171 -11 -88 37 -95 191 -11 243 30 19 113 22 143 6z
m706 -11 c38 -41 56 -120 29 -131 -6 -2 -38 -5 -70 -5 -31 0 -61 -1 -67 -1 -5
-1 -10 -8 -10 -16 0 -21 45 -29 96 -18 46 11 64 3 64 -28 0 -31 -40 -49 -105
-49 -96 0 -145 40 -147 118 -2 69 2 80 36 116 31 33 38 36 93 36 49 0 63 -4
81 -22z m125 5 c8 -10 21 -39 27 -65 7 -27 16 -48 21 -48 8 0 29 63 29 87 0
19 30 43 54 43 47 0 47 -15 -8 -172 -29 -82 -60 -158 -69 -168 -20 -23 -72
-27 -80 -6 -3 8 1 33 10 55 15 39 15 42 -25 154 -30 85 -38 117 -29 126 17 17
52 13 70 -6z m371 7 c45 -17 68 -66 64 -138 -3 -51 -9 -67 -30 -89 -35 -34
-116 -44 -164 -18 -78 42 -82 191 -6 238 30 18 97 22 136 7z m316 -17 c17 -22
20 -40 20 -129 0 -109 1 -106 -45 -106 -40 0 -41 1 -43 84 -3 88 -9 102 -38
96 -17 -3 -19 -15 -22 -90 -3 -83 -4 -86 -28 -91 -60 -11 -63 -6 -60 122 1 64
5 121 8 126 3 6 47 11 97 12 86 2 91 1 111 -24z m1219 6 c27 -25 41 -60 41
-100 0 -16 -1 -29 -2 -30 -2 0 -32 -2 -68 -5 -87 -7 -96 -10 -79 -30 13 -16
85 -16 121 0 25 11 37 -40 14 -62 -24 -24 -134 -29 -175 -7 -79 40 -81 174 -5
234 37 29 121 29 153 0z m596 10 c6 0 25 4 43 7 80 16 119 -57 103 -193 0 -6
-15 -26 -32 -43 -27 -27 -38 -31 -73 -28 l-41 3 -5 -45 c-5 -45 -5 -45 -45
-45 l-40 0 -3 168 c-2 166 -2 168 20 176 13 5 32 7 43 4 11 -3 25 -4 30 -4z
m377 -12 c36 -29 45 -60 42 -132 -2 -52 -6 -63 -33 -87 -52 -46 -162 -37 -196
16 -39 59 -20 176 33 209 40 25 120 22 154 -6z m303 3 c9 -30 7 -246 -3 -270
-20 -50 -48 -65 -128 -67 -40 -1 -76 2 -79 8 -7 11 -10 67 -4 73 2 3 25 0 51
-6 36 -9 51 -8 63 2 25 21 17 28 -23 23 -56 -7 -96 16 -110 65 -7 22 -12 46
-12 53 0 35 24 94 47 115 23 21 33 23 109 21 65 -1 85 -5 89 -17z m247 -5 c14
-13 29 -38 33 -55 8 -38 26 -34 37 8 13 47 51 72 114 72 41 0 59 -5 78 -22 28
-25 49 -97 35 -119 -5 -8 -6 -35 -3 -61 6 -45 5 -48 -20 -58 -47 -18 -135 -12
-166 10 -29 21 -60 71 -60 97 0 10 -5 11 -18 4 -9 -5 -45 -8 -80 -8 -52 2 -62
-1 -62 -15 0 -23 33 -31 96 -23 52 6 54 5 54 -17 0 -46 -14 -53 -99 -53 -74 0
-82 2 -110 29 -29 28 -31 35 -31 99 0 65 2 71 34 103 30 30 40 34 88 34 43 0
58 -5 80 -25z"/>
<path d="M6516 2165 c-37 -38 -8 -134 32 -108 24 15 24 116 1 121 -9 2 -24 -4
-33 -13z"/>
<path d="M7086 2302 c-2 -4 -1 -14 5 -22 7 -12 9 -10 9 8 0 23 -5 28 -14 14z"/>
<path d="M519 2189 c0 -2 -2 -13 -5 -24 -2 -11 -2 -26 1 -32 5 -15 35 -6 35
11 -1 11 -29 54 -31 45z"/>
<path d="M5150 2225 c0 -20 5 -25 24 -25 30 0 42 16 26 35 -21 25 -50 19 -50
-10z"/>
<path d="M5168 2122 c-12 -2 -18 -13 -18 -32 0 -31 12 -39 47 -32 17 3 23 11
23 32 0 29 -18 40 -52 32z"/>
<path d="M7896 2180 c-10 -28 -11 -49 -3 -49 22 -2 27 1 27 17 0 9 -4 24 -10
32 -8 13 -10 13 -14 0z"/>
<path d="M1163 2093 c-20 -8 -15 -40 7 -46 20 -5 40 17 40 42 0 11 -25 13 -47
4z"/>
<path d="M2256 2165 c-33 -33 -11 -111 30 -103 16 3 19 12 19 58 0 60 -18 76
-49 45z"/>
<path d="M3431 2177 c-14 -18 -4 -27 29 -27 15 0 30 3 33 7 10 10 -13 33 -33
33 -10 0 -23 -6 -29 -13z"/>
<path d="M3962 2177 c-15 -18 -5 -27 30 -27 23 0 29 4 26 18 -4 21 -41 28 -56
9z"/>
<path d="M4741 2181 c-19 -12 -5 -31 24 -31 13 0 27 5 31 11 7 11 -12 29 -31
29 -5 0 -16 -4 -24 -9z"/>
<path d="M5441 2181 c-21 -13 -4 -31 30 -31 31 0 36 9 17 28 -14 14 -28 15
-47 3z"/>
<path d="M5956 2168 c-32 -45 -14 -118 29 -118 18 0 26 7 31 24 10 42 0 88
-23 103 -19 13 -23 12 -37 -9z"/>
<path d="M7472 2177 c-15 -18 -5 -27 30 -27 23 0 29 4 26 18 -4 21 -41 28 -56
9z"/>
<path d="M8183 2173 c-9 -3 -13 -25 -13 -64 0 -56 1 -59 25 -59 28 0 45 25 45
67 0 42 -26 67 -57 56z"/>
<path d="M8440 2160 c-30 -56 15 -143 54 -105 22 22 22 110 0 119 -28 11 -43
7 -54 -14z"/>
<path d="M8721 2166 c-18 -22 -22 -71 -7 -91 9 -13 20 -16 38 -12 22 6 25 12
24 54 0 60 -27 83 -55 49z"/>
<path d="M8997 2183 c-14 -13 -6 -33 12 -33 36 0 53 11 40 26 -12 15 -41 19
-52 7z"/>
<path d="M9255 2180 c-10 -16 4 -30 29 -30 29 0 39 10 25 27 -13 15 -45 17
-54 3z"/>
<path d="M9303 2092 c-55 -3 -64 -11 -38 -32 29 -24 115 -9 115 20 0 12 -20
15 -77 12z"/>
</g>
</svg>
